<svg width="10" height="11" viewBox="0 0 10 11" fill="none" xmlns="http://www.w3.org/2000/svg">
<path d="M4.6575 8.65367C4.69573 8.70919 4.74688 8.75458 4.80654 8.78594C4.86621 8.8173 4.9326 8.83368 5 8.83368C5.06741 8.83368 5.1338 8.8173 5.19347 8.78594C5.25313 8.75458 5.30428 8.70919 5.3425 8.65367L9.0925 3.237C9.13591 3.17453 9.16136 3.10135 9.1661 3.02542C9.17084 2.94949 9.15468 2.87372 9.11937 2.80633C9.08407 2.73895 9.03097 2.68252 8.96585 2.64319C8.90073 2.60386 8.82608 2.58313 8.75 2.58325H1.25C1.17411 2.58357 1.09973 2.60456 1.03487 2.64399C0.970014 2.68341 0.91713 2.73977 0.881908 2.807C0.846685 2.87423 0.830456 2.94979 0.834966 3.02556C0.839476 3.10132 0.864555 3.17442 0.907504 3.237L4.6575 8.65367Z" fill="white"/>
</svg>
