<svg width="26" height="37" viewBox="0 0 26 37" fill="none" xmlns="http://www.w3.org/2000/svg">
<path d="M4.11102 21.5002V20.3891C4.11102 16.7072 7.09582 13.7224 10.7778 13.7224H15.2223C18.9042 13.7224 21.889 16.7072 21.889 20.3891V21.5002" stroke="white" stroke-width="2" stroke-linecap="round"/>
<path d="M13.0002 10.3887C10.5455 10.3887 8.55566 8.39887 8.55566 5.94425C8.55566 3.48962 10.5455 1.49976 13.0002 1.49976C15.4547 1.49976 17.4446 3.48962 17.4446 5.94425C17.4446 8.39887 15.4547 10.3887 13.0002 10.3887Z" stroke="white" stroke-width="2" stroke-linecap="round"/>
<path d="M1.2 33.5002V26.3002H4.055C4.54167 26.3002 4.94 26.3986 5.25 26.5952C5.56333 26.7886 5.795 27.0369 5.945 27.3402C6.09833 27.6436 6.175 27.9569 6.175 28.2802C6.175 28.6769 6.08 29.0136 5.89 29.2902C5.70333 29.5669 5.44833 29.7536 5.125 29.8502V29.6002C5.57833 29.7036 5.92167 29.9186 6.155 30.2452C6.39167 30.5719 6.51 30.9436 6.51 31.3602C6.51 31.7869 6.42833 32.1602 6.265 32.4802C6.10167 32.8002 5.85833 33.0502 5.535 33.2302C5.215 33.4102 4.81833 33.5002 4.345 33.5002H1.2ZM2.42 32.3652H4.195C4.405 32.3652 4.59333 32.3236 4.76 32.2402C4.92667 32.1536 5.05667 32.0336 5.15 31.8802C5.24667 31.7236 5.295 31.5386 5.295 31.3252C5.295 31.1319 5.25333 30.9586 5.17 30.8052C5.08667 30.6519 4.965 30.5302 4.805 30.4402C4.645 30.3469 4.45333 30.3002 4.23 30.3002H2.42V32.3652ZM2.42 29.1752H4.04C4.21333 29.1752 4.36833 29.1419 4.505 29.0752C4.64167 29.0086 4.75 28.9102 4.83 28.7802C4.91 28.6502 4.95 28.4902 4.95 28.3002C4.95 28.0502 4.87 27.8419 4.71 27.6752C4.55 27.5086 4.32667 27.4252 4.04 27.4252H2.42V29.1752ZM6.90859 33.5002L8.88359 30.7702L6.94859 28.1002H8.36859L9.58359 29.8252L10.7786 28.1002H12.1986L10.2636 30.7702L12.2486 33.5002H10.8286L9.58359 31.7152L8.32859 33.5002H6.90859ZM15.2354 33.6502C14.6954 33.6502 14.2237 33.5286 13.8204 33.2852C13.4171 33.0419 13.1037 32.7069 12.8804 32.2802C12.6604 31.8502 12.5504 31.3569 12.5504 30.8002C12.5504 30.2336 12.6637 29.7369 12.8904 29.3102C13.1171 28.8836 13.4321 28.5502 13.8354 28.3102C14.2387 28.0702 14.7054 27.9502 15.2354 27.9502C15.7787 27.9502 16.2521 28.0719 16.6554 28.3152C17.0587 28.5586 17.3721 28.8952 17.5954 29.3252C17.8187 29.7519 17.9304 30.2436 17.9304 30.8002C17.9304 31.3602 17.8171 31.8552 17.5904 32.2852C17.3671 32.7119 17.0537 33.0469 16.6504 33.2902C16.2471 33.5302 15.7754 33.6502 15.2354 33.6502ZM15.2354 32.5202C15.7154 32.5202 16.0721 32.3602 16.3054 32.0402C16.5387 31.7202 16.6554 31.3069 16.6554 30.8002C16.6554 30.2769 16.5371 29.8602 16.3004 29.5502C16.0637 29.2369 15.7087 29.0802 15.2354 29.0802C14.9121 29.0802 14.6454 29.1536 14.4354 29.3002C14.2287 29.4436 14.0754 29.6452 13.9754 29.9052C13.8754 30.1619 13.8254 30.4602 13.8254 30.8002C13.8254 31.3236 13.9437 31.7419 14.1804 32.0552C14.4204 32.3652 14.7721 32.5202 15.2354 32.5202ZM18.632 34.7002V32.5552C18.9254 32.5552 19.1337 32.4552 19.257 32.2552C19.3804 32.0552 19.4787 31.7086 19.552 31.2152C19.5987 30.9219 19.637 30.6119 19.667 30.2852C19.697 29.9586 19.722 29.6136 19.742 29.2502C19.7654 28.8869 19.7854 28.5036 19.802 28.1002H23.822V32.5552H24.367V34.7002H23.227V33.5002H19.767V34.7002H18.632ZM20.247 32.5552H22.622V29.0452H20.857C20.847 29.2452 20.8354 29.4502 20.822 29.6602C20.8087 29.8669 20.7937 30.0736 20.777 30.2802C20.7604 30.4869 20.742 30.6852 20.722 30.8752C20.7054 31.0619 20.6854 31.2352 20.662 31.3952C20.6254 31.6752 20.5804 31.9052 20.527 32.0852C20.4737 32.2652 20.3804 32.4219 20.247 32.5552Z" fill="white"/>
</svg>
